<svg xmlns="http://www.w3.org/2000/svg" viewBox="0 0 64 64"><path d="M52 33.256v-2.563l.862-.323C57.132 28.769 60 24.63 60 20.07V15c1.103 0 2-.897 2-2v-2c0-1.103-.897-2-2-2h-.059c-.5-4.493-4.317-8-8.941-8h-8c-4.624 0-8.442 3.507-8.941 8H34c-1.103 0-2 .897-2 2v2c0 1.103.897 2 2 2h2v1.697l-1.487 2.229A3.054 3.054 0 0 0 34 20.623c0 1.23.684 2.336 1.785 2.888l.215.107V26c0 2.757 2.243 5 5 5h3v2.124l-1.178.157A15.871 15.871 0 0 0 30.209 43H25V30h6v-8H17v3h-2v-3H9v-6h6V6H1v10h6v6H1v8h14v-3h2v3h6v13h-4v-8h-5c-2.757 0-5 2.243-5 5v18c0 2.757 2.243 5 5 5h29v-4h9.402C58.246 59 63 54.245 63 48.401c0-6.905-4.486-13.025-11-15.145zM3 8h10v6H3zm10 20H3v-4h10zm6-4h10v4H19zm39-3.93a9.043 9.043 0 0 1-5.84 8.427l-.16.06V26.5l2.267-1.7A4.358 4.358 0 0 0 56 21.333a4.34 4.34 0 0 0-4-4.32V15h6zM43 3h8c3.519 0 6.432 2.614 6.92 6H36.08c.488-3.386 3.401-6 6.92-6zm-9 8h26v2H34zm7 18c-1.654 0-3-1.346-3-3v-3.618l-1.32-.66c-.42-.21-.68-.631-.68-1.099 0-.21.062-.413.177-.587L38 17.303V15h12v4h1.667A2.336 2.336 0 0 1 54 21.333c0 .73-.349 1.429-.934 1.867L50 25.5V34c0 1.103-.897 2-2 2s-2-.897-2-2v-5zm-27 8h3v6h-3c-1.654 0-3-1.346-3-3s1.346-3 3-3zm27 24H14c-1.654 0-3-1.346-3-3V43.974A4.948 4.948 0 0 0 14 45h27v4c-2.206 0-4 1.794-4 4v2c0 2.206 1.794 4 4 4zm4-4h-4c-1.103 0-2-.897-2-2v-2c0-1.103.897-2 2-2h1.757a1.99 1.99 0 0 1 1.415.586l.828.828zm7.402 0H47v-4h3.879a6.084 6.084 0 0 0 4.328-1.793A6.077 6.077 0 0 0 57 46.879V44h-2v2.879a4.093 4.093 0 0 1-1.207 2.914A4.153 4.153 0 0 1 50.879 51h-4.465l-.828-.828A3.96 3.96 0 0 0 43 49.024V43H32.398a13.872 13.872 0 0 1 10.689-7.736l1.092-.145C44.666 36.778 46.185 38 48 38c1.751 0 3.226-1.138 3.767-2.707C57.253 37.259 61 42.502 61 48.401 61 53.143 57.143 57 52.402 57z"/><path d="M5 10h6v2H5zM49 42h4v2h-4z"/></svg>