<svg xmlns="http://www.w3.org/2000/svg" viewBox="0 0 64 64"><path d="M62.732 14.373C54.812 5.874 43.611 1 32 1S9.187 5.874 1.268 14.373a.999.999 0 0 0-.269.682L1 62a1 1 0 0 0 1 1h60a1 1 0 0 0 1-1l.001-46.945a.999.999 0 0 0-.269-.682zm-3.129-.318H4.396C11.802 7.003 21.732 3 32 3s20.198 4.003 27.603 11.055zM11 24v-3c0-.551.449-1 1-1h40c.551 0 1 .449 1 1v3zm40 2v2H13v-2zM36 49H25V38a1 1 0 0 0-1-1H13v-3h38v27H37V50a1 1 0 0 0-1-1zm-7 2h2v2h-2zm-12 0h2v2h-2zm-4-2V39h2v3a1 1 0 0 0 1 1h4a1 1 0 0 0 1-1v-3h2v10zm38-17H13v-2h38zm-34 7h2v2h-2zm-4 12h2v3a1 1 0 0 0 1 1h4a1 1 0 0 0 1-1v-3h2v10H13zm12 10V51h2v3a1 1 0 0 0 1 1h4a1 1 0 0 0 1-1v-3h2v10zm28 0V26h1a1 1 0 0 0 1-1v-4c0-1.654-1.346-3-3-3H12c-1.654 0-3 1.346-3 3v4a1 1 0 0 0 1 1h1v35H3l-.001-44.946h58.002v17.945H56a1 1 0 0 0-1 1v10a1 1 0 0 0 1 1h5v15h-8zm8-20v3h-4v-8h4.001v3h-2v2z"/><path d="M22 10h20v2H22zM22 6h20v2H22zM15 57h6v2h-6zM15 45h6v2h-6zM27 57h6v2h-6zM6 35h2v2H6zM6 39h2v2H6zM6 43h2v2H6z"/></svg>