<svg xmlns="http://www.w3.org/2000/svg" viewBox="0 0 512 512"><path d="M492.155 165.465l-25.923-26.557a23.515 23.515 0 0 0-16.733-7.05h-7.994c-8.371 0-15.181 6.81-15.181 15.181v19.338h-79.297v-12.711a60.383 60.383 0 0 0-10.799-34.546l-44.566-64.326a7.346 7.346 0 0 0 5.274-7.044 7.345 7.345 0 0 0-7.346-7.346H152.635a7.345 7.345 0 1 0-2.073 14.39l-44.567 64.325a60.39 60.39 0 0 0-10.798 34.547v85.49c0 36.879 30.003 66.881 66.881 66.881h51.666v19.466h-67.736c-37.715 0-68.398-30.683-68.398-68.397v-36.243h3.441a7.346 7.346 0 0 0 0-14.692H35.784V166.24c0-9.95-3.875-19.305-10.91-26.341l-11.166-11.166a7.346 7.346 0 0 0-10.389 10.388l11.166 11.166a22.414 22.414 0 0 1 6.608 15.953v39.931H7.35a7.346 7.346 0 0 0-7.346 7.346c0 1.458.43 2.814 1.163 3.957v68.219c0 4.057 3.288 7.346 7.346 7.346s7.346-3.289 7.346-7.346v-64.83h16.65v214.556h-16.65V318.543c0-4.057-3.288-7.346-7.346-7.346s-7.346 3.289-7.346 7.346v120.265c-3.164 4.635.509 11.472 6.183 11.302h34.402c6.219.213 9.71-7.863 5.448-12.261v-39.833h236.377a7.346 7.346 0 0 0 0-14.692H47.2v-16.65h347.782v4.605a53.094 53.094 0 0 0-16.067 12.045h-61.883a7.346 7.346 0 0 0 0 14.692h52.43a52.497 52.497 0 0 0-4.266 20.777c0 29.116 23.687 52.803 52.803 52.803s52.803-23.687 52.803-52.803c0-20.869-12.171-38.946-29.786-47.514V268.855h44.356c14.683 0 26.628-11.945 26.628-26.628v-28.019c0-18.322-7.047-35.633-19.845-48.743zm-65.831 40.703l-97.477-.061.064-25.04h97.413zM168.226 55.095h105.772l50.154 72.391a45.98 45.98 0 0 1 5.493 10.666H171.22a7.346 7.346 0 0 0 0 14.692h161.1c.005.274.016.547.016.822v12.711h-3.424c-8.136 0-14.755 6.619-14.755 14.756v24.975c0 8.136 6.62 14.756 14.755 14.756h3.424v15.845H109.889v-83.042c0-.275.011-.548.016-.822h27.586a7.346 7.346 0 0 0 0-14.692h-24.913a46 46 0 0 1 5.493-10.666zm-56.872 196.304h219.517c-5.525 22.888-26.165 39.947-50.725 39.947H162.079c-24.56 0-45.2-17.059-50.725-39.947zm117.082 54.638h51.709c36.879 0 66.881-30.003 66.881-66.881v-18.293h17.587v36.243c0 37.715-30.683 68.397-68.397 68.397h-67.779v-19.466zM62.919 220.863v36.243c0 45.816 37.274 83.089 83.09 83.089h150.207c45.815 0 83.089-37.273 83.089-83.089v-36.243h15.678v89.796l-41.325 41.325H87.077L47.2 312.107v-91.244zM47.2 332.884l19.1 19.1H47.2zm327.235 19.1l20.548-20.548v20.548zm81.675 66.81c0 21.015-17.097 38.111-38.112 38.111s-38.112-17.096-38.112-38.111 17.097-38.111 38.112-38.111 38.112 17.096 38.112 38.111zm-38.111-52.802c-2.833 0-5.612.231-8.325.662V220.863h16.65v145.791a52.897 52.897 0 0 0-8.325-.662zm79.31-123.765c0 6.582-5.354 11.937-11.937 11.937h-44.356V147.039c0-.27.22-.49.49-.49h7.994a8.74 8.74 0 0 1 6.219 2.62l25.923 26.557c10.103 10.35 15.667 24.017 15.667 38.481z"/><circle cx="469.162" cy="230.458" r="9.717"/><circle cx="469.162" cy="200.356" r="9.717"/><circle cx="417.999" cy="418.794" r="12.088"/></svg>