<svg xmlns="http://www.w3.org/2000/svg" viewBox="0 0 64 64"><path d="M61 41V12c0-2.757-2.243-5-5-5V3h-2v4h-2V1h-2v6h-2V3h-2v4h-2c-2.757 0-5 2.243-5 5v9h-5c-2.757 0-5 2.243-5 5v1h-1c-2.757 0-5 2.243-5 5v9h-1.259a129.047 129.047 0 0 1-1.4-11.785l3.361-3.361-1.157-2.314L25 22.721V17.28l-2.455-.819 1.157-2.314-3.848-3.848-2.315 1.158L16.721 9H11.28l-.818 2.456-2.315-1.158-3.848 3.848 1.157 2.314L3 17.279v5.441l2.455.819-1.157 2.314 3.359 3.359a128.272 128.272 0 0 1-1.852 14.399l-.269 1.439L1 49.586V63h62V41zm-26-8v2H25v-2zm26 10v2H8.414l2-2zm-16-2v-4h10v4zm0-8h10v2H45zm.184-2A2.996 2.996 0 0 1 48 29h4c1.302 0 2.402.839 2.816 2zM52 27h-1v-1c0-.342-.035-.677-.101-1H53v2.101A4.995 4.995 0 0 0 52 27zm-3-14h4v2h-4zm0 4h4v2h-4zm4-6h-4V9h4zm-4 10h4v2h-3.026a5.02 5.02 0 0 0-.974-.974zm0 5v1h-1c-2.757 0-5 2.243-5 5v9h-2V23h5c1.654 0 3 1.346 3 3zm10-14v29h-2v-9c0-1.627-.793-3.061-2-3.974V9h1c1.654 0 3 1.346 3 3zm-18 0c0-1.654 1.346-3 3-3h3v12.101A4.995 4.995 0 0 0 46 21h-5zM31 26c0-1.654 1.346-3 3-3h5v18h-2v-9c0-2.757-2.243-5-5-5h-1zm-3 3h4c1.302 0 2.402.839 2.816 2h-9.631A2.994 2.994 0 0 1 28 29zm-3 8h10v4H25zM7.618 22.865c-.056-.125-.105-.251-.155-.379l-.169-.441L5 21.279V18.72l2.294-.765.169-.441a9.1 9.1 0 0 1 .155-.379l.194-.433-1.081-2.162 1.809-1.809 2.162 1.081.433-.194c.123-.055.248-.105.375-.153l.445-.168.766-2.297h2.559l.766 2.298.445.168c.127.048.252.098.375.153l.433.194 2.162-1.081 1.809 1.809-1.081 2.162.194.433c.056.125.105.251.155.379l.169.441 2.293.765v2.559l-2.294.765-.169.441a9.1 9.1 0 0 1-.155.379l-.194.433 1.081 2.162-1.809 1.809-2.162-1.081-.433.194a6.843 6.843 0 0 1-.375.153l-.445.168L15.279 29H12.72l-.766-2.298-.445-.168a6.843 6.843 0 0 1-.375-.153l-.433-.194-2.161 1.082-1.809-1.809 1.081-2.162zm2.067 6.067l.776-.388.818 2.456h5.441l.818-2.456.774.387c.277 4.023.75 8.072 1.403 12.068H9.586l-1.574 1.574a130.439 130.439 0 0 0 1.673-13.641zM3 50.414L6.414 47H61v2H29v12h-2V51h-6v10h-2V51h-6v10h-2V51H5v10H3zM45 51v4h-6v-4zm-8 4h-6v-4h6zm-6 2h6v4h-6zm8 0h6v4h-6zm8 0h6v4h-6zm0-2v-4h6v4zm8-4h6v4h-6zM25 61h-2v-8h2zm-8 0h-2v-8h2zm-8 0H7v-8h2zm46 0v-4h6v4z"/><path d="M14 25c2.757 0 5-2.243 5-5s-2.243-5-5-5-5 2.243-5 5 2.243 5 5 5zm0-8c1.654 0 3 1.346 3 3s-1.346 3-3 3-3-1.346-3-3 1.346-3 3-3zM31 4c0 .551-.448 1-1 1h-4c-1.654 0-3 1.346-3 3s1.346 3 3 3h7a1.001 1.001 0 0 1 0 2h-7v2h7c1.654 0 3-1.346 3-3s-1.346-3-3-3h-7a1.001 1.001 0 0 1 0-2h4c1.654 0 3-1.346 3-3s-1.346-3-3-3H14v2h16c.552 0 1 .449 1 1z"/></svg>